<svg width="21" height="18" fill="none" xmlns="http://www.w3.org/2000/svg"><g clip-path="url(#clip0_1238_1002)"><path fill-rule="evenodd" clip-rule="evenodd" d="M15.776 2.795a6.405 6.405 0 01-1.587 1.656v.417c0 .71-.09 1.422-.27 2.138-.18.716-.438 1.413-.774 2.088a8.527 8.527 0 01-1.295 1.895 9.391 9.391 0 01-1.77 1.538 8.23 8.23 0 01-2.258 1.036 9.437 9.437 0 01-2.7.38c-1.919 0-3.551-.433-4.898-1.299a5.52 5.52 0 002.84-.357 7.363 7.363 0 001.876-1.1c-.67 0-1.321-.224-1.85-.635a3.103 3.103 0 01-1.12-1.583c.479.094.973.076 1.443-.053a3.11 3.11 0 01-1.83-1.097 3.084 3.084 0 01-.729-2.032v-.038c.456.248.937.38 1.443.395a3.2 3.2 0 01-1.044-1.139 3.076 3.076 0 01-.384-1.503c0-.522.145-1.038.433-1.55a8.87 8.87 0 002.901 2.313c1.134.57 2.357.89 3.668.96a3.344 3.344 0 01-.068-.736c0-.881.31-1.632.93-2.252.62-.62 1.37-.93 2.251-.93.907 0 1.689.334 2.347 1.002a6.344 6.344 0 002.012-.774 3.06 3.06 0 01-1.405 1.77 6.065 6.065 0 001.838-.51z" fill="#000"/></g><defs><clipPath id="clip0_1238_1002"><path fill="#fff" transform="translate(0 .625)" d="M0 0h21v17H0z"/></clipPath></defs></svg>