<svg width="31" height="18" fill="none" xmlns="http://www.w3.org/2000/svg"><g clip-path="url(#clip0_1238_1009)"><path fill-rule="evenodd" clip-rule="evenodd" d="M.5 14.065h4.17V12.81H.5v1.255zm0-1.634h4.17v-1.263H.5v1.263zm0-1.642h4.17V9.526H.5v1.263zm0-1.642h4.17V7.883H.5v1.264zm0-1.643h4.17V6.241H.5v1.263zm4.675 6.561h4.169V12.81h-4.17l.001 1.255zm0-1.634h4.169v-1.263h-4.17l.001 1.263zm0-1.642h4.169V9.526h-4.17l.001 1.263zm4.674 3.276h4.17V12.81h-4.17v1.255zm0-1.634h4.17v-1.263h-4.17v1.263zm0-1.642h4.17V9.526h-4.17v1.263zm0-1.642h4.17V7.883h-4.17v1.264zm0-1.643h4.17V6.241h-4.17v1.263zm0-1.642h4.17V4.598h-4.17v1.264zm0-1.642h4.17V2.955h-4.17V4.22zm4.675 9.845h4.169V12.81h-4.17l.001 1.255zm0-1.634h4.169v-1.263h-4.17l.001 1.263zm0-1.642h4.169V9.526h-4.17l.001 1.263zm0-1.642h4.169V7.883h-4.17l.001 1.264zm0-1.643h4.169V6.241h-4.17l.001 1.263zm4.674 6.561h4.17V12.81h-4.17v1.255zm0-1.634h4.17v-1.263h-4.17v1.263zm0-1.642h4.17V9.525h-4.17v1.264zm0-1.642h4.17V7.883h-4.17v1.264zm0-1.643h4.17V6.24h-4.17v1.264zm0-1.643h4.17V4.598h-4.17v1.263zm0-1.642h4.17V2.955h-4.17v1.264zm0-1.642h4.17V1.313h-4.17v1.264z" fill="#000"/></g><defs><clipPath id="clip0_1238_1009"><path fill="#fff" transform="translate(0 .625)" d="M0 0h31v17H0z"/></clipPath></defs></svg>