<svg width="21" height="22" fill="none" xmlns="http://www.w3.org/2000/svg"><g clip-path="url(#clip0_1238_999)"><path d="M15.78 1.825v13.6a1 1 0 01-1 1h-3.86v-6h1.94l.33-2.24h-2.27v-1.83a1 1 0 01.24-.73 1 1 0 01.73-.26h1.46v-2a10.13 10.13 0 00-1.59-.11 3.31 3.31 0 00-2.39.79 2.86 2.86 0 00-.82 2.16v1.91H6.6v2.24h1.94v6H1.2a.93.93 0 01-.68-.29.93.93 0 01-.29-.68V1.825a.93.93 0 01.28-.69.93.93 0 01.69-.29h13.6a.93.93 0 01.68.29.93.93 0 01.3.69z" fill="#1A1A1A"/></g><defs><clipPath id="clip0_1238_999"><path fill="#fff" transform="translate(0 .625)" d="M0 0h21v21H0z"/></clipPath></defs></svg>