<svg width="21" height="16" fill="none" xmlns="http://www.w3.org/2000/svg"><g clip-path="url(#clip0_1238_1013)"><path fill-rule="evenodd" clip-rule="evenodd" d="M8 1.12c2.349 0 3.893.032 4.632.098 1.068.091 1.818.307 2.248.647.4.314.658.832.774 1.556.082.517.122 1.51.122 2.977v.227c0 1.524-.033 2.539-.099 3.045-.106.77-.346 1.319-.721 1.648-.4.36-1.104.59-2.111.691-.75.081-2.258.121-4.526.121H8c-2.349 0-3.893-.032-4.632-.098-1.068-.091-1.818-.307-2.248-.647-.4-.314-.658-.832-.774-1.556-.082-.517-.122-1.51-.122-2.977v-.227c0-1.524.033-2.539.099-3.045.106-.77.346-1.319.721-1.648.4-.36 1.104-.59 2.111-.691.75-.081 2.258-.121 4.526-.121H8zM6.056 9.541l4.86-2.916-4.86-2.916v5.832z" fill="#000"/></g><defs><clipPath id="clip0_1238_1013"><path fill="#fff" transform="translate(0 .625)" d="M0 0h21v15H0z"/></clipPath></defs></svg>