<svg width="21" height="22" fill="none" xmlns="http://www.w3.org/2000/svg"><g clip-path="url(#clip0_1238_1005)" fill="#1A1A1A"><path d="M7.997 2.065c2.136 0 2.39.01 3.232.048.78.035 1.202.165 1.484.275.373.145.64.318.92.598.28.28.453.548.598.92.11.283.24.706.275 1.486.04.843.047 1.096.047 3.23 0 2.137-.008 2.39-.047 3.233-.035.78-.166 1.202-.275 1.484a2.48 2.48 0 01-.598.92 2.48 2.48 0 01-.92.598c-.282.11-.705.24-1.485.275-.844.04-1.097.047-3.233.047-2.135 0-2.388-.008-3.23-.047-.78-.035-1.204-.166-1.486-.275a2.48 2.48 0 01-.92-.598 2.477 2.477 0 01-.597-.92c-.11-.282-.24-.705-.275-1.485-.04-.844-.047-1.097-.047-3.233 0-2.135.01-2.388.048-3.23.035-.78.165-1.204.275-1.486.145-.372.318-.64.598-.92.28-.28.547-.452.92-.597.283-.11.706-.24 1.486-.275.843-.04 1.096-.047 3.23-.047m0-1.44C5.827.625 5.554.635 4.7.673c-.85.04-1.432.174-1.94.372-.534.2-1.018.515-1.418.922-.444.445-.718.89-.922 1.417-.198.508-.333 1.091-.372 1.941C.008 6.178 0 6.45 0 8.622s.01 2.445.048 3.298c.04.85.174 1.432.372 1.94.204.527.478.973.922 1.418.445.444.89.718 1.417.922.508.198 1.09.333 1.94.372.853.04 1.125.048 3.297.048s2.445-.01 3.298-.048c.85-.04 1.432-.174 1.94-.372a3.922 3.922 0 001.418-.922c.444-.445.718-.89.922-1.417.198-.51.333-1.09.372-1.94.04-.854.048-1.127.048-3.3 0-2.17-.01-2.443-.048-3.296-.04-.85-.174-1.432-.372-1.94a3.921 3.921 0 00-.922-1.418 3.918 3.918 0 00-1.417-.922c-.51-.198-1.09-.333-1.94-.372-.855-.04-1.127-.048-3.3-.048"/><path d="M7.997 4.515a4.107 4.107 0 100 8.213 4.107 4.107 0 000-8.211v-.002zm0 6.773a2.666 2.666 0 110-5.331 2.666 2.666 0 010 5.33zm5.229-6.935a.96.96 0 11-1.92 0 .96.96 0 011.92 0"/></g><defs><clipPath id="clip0_1238_1005"><path fill="#fff" transform="translate(0 .625)" d="M0 0h21v21H0z"/></clipPath></defs></svg>